<?xml version="1.0" encoding="UTF-8"?>
<!DOCTYPE svg PUBLIC "-//W3C//DTD SVG 1.1//EN" "http://www.w3.org/Graphics/SVG/1.1/DTD/svg11.dtd">
<!-- Creator: CorelDRAW X7 -->
<svg xmlns="http://www.w3.org/2000/svg" xml:space="preserve" width="53.4641mm" height="57.4769mm" version="1.1" style="shape-rendering:geometricPrecision; text-rendering:geometricPrecision; image-rendering:optimizeQuality; fill-rule:evenodd; clip-rule:evenodd"
viewBox="0 0 1705 1833"
 xmlns:xlink="http://www.w3.org/1999/xlink">
 <defs>
  <style type="text/css">
   <![CDATA[
    .fil2 {fill:#373435}
    .fil3 {fill:#FFCC29}
    .fil1 {fill:#00A859}
    .fil0 {fill:#006CB5}
   ]]>
  </style>
 </defs>
 <g id="Camada_x0020_1">
  <metadata id="CorelCorpID_0Corel-Layer"/>
  <g id="_410029248">
   <polygon class="fil0" points="789,1210 789,1254 745,1254 745,1210 "/>
   <polygon class="fil0" points="789,1319 789,1555 745,1555 745,1319 "/>
   <path class="fil0" d="M535 1316l-1 42c-2,0 -4,-1 -5,-1 -2,0 -4,-1 -5,-1 -1,0 -3,0 -4,0 -2,0 -3,0 -5,0 -10,0 -19,1 -27,5 -7,3 -14,8 -19,16 -6,7 -10,15 -13,25 -2,10 -4,22 -4,35l0 118 -43 0 0 -236 39 0 0 48c3,-8 7,-16 12,-22 4,-7 10,-12 16,-17 6,-4 12,-8 19,-10 7,-2 14,-4 22,-4 0,0 1,0 2,0 0,0 1,0 2,0 0,1 1,1 2,1 0,0 1,0 2,0 2,0 3,1 5,1 2,0 3,0 5,0l0 0z"/>
   <path class="fil0" d="M180 1237l-5 40c-5,-2 -10,-4 -15,-6 -6,-2 -11,-4 -16,-5 -5,-1 -11,-2 -16,-3 -6,-1 -12,-1 -18,-1 -9,0 -18,1 -26,3 -8,2 -14,5 -20,8 -6,4 -10,8 -12,13 -3,6 -4,11 -4,18 0,5 1,9 2,14 2,5 5,9 9,13 3,5 9,9 17,15 9,5 19,12 31,18 16,9 30,18 41,26 12,8 20,16 26,23 7,7 11,15 14,23 3,9 5,18 5,27 0,14 -3,26 -8,38 -5,11 -13,21 -23,30 -10,9 -22,16 -35,20 -13,4 -27,6 -43,6 -8,0 -16,0 -23,-1 -7,0 -15,-1 -22,-2 -7,-1 -13,-3 -20,-5 -6,-1 -13,-3 -19,-5l4 -45c7,4 14,7 21,9 6,3 12,5 18,7 7,2 13,3 19,4 6,1 12,1 18,1 10,0 19,-1 26,-3 8,-2 15,-6 21,-10 5,-4 10,-9 13,-15 3,-5 4,-12 4,-19 0,-11 -5,-22 -17,-34 -11,-12 -29,-25 -52,-38 -4,-2 -7,-4 -10,-6 -3,-1 -5,-3 -7,-4 -9,-5 -17,-11 -24,-17 -7,-6 -12,-13 -18,-20 -5,-7 -8,-15 -11,-22 -2,-8 -4,-15 -4,-23 0,-13 3,-24 8,-34 5,-10 12,-19 22,-26 9,-8 21,-14 34,-17 13,-4 28,-6 45,-6 6,0 12,0 18,1 6,0 12,1 18,2 6,1 12,2 18,3 5,2 11,3 16,5l0 0z"/>
   <path class="fil1" d="M1704 1327l-4 37c-3,-1 -7,-3 -11,-4 -4,-2 -8,-3 -12,-4 -5,-1 -9,-2 -14,-3 -4,0 -9,-1 -14,-1 -12,0 -22,2 -32,6 -10,4 -19,10 -27,18 -7,8 -13,17 -17,27 -3,10 -5,21 -5,34 0,13 2,24 5,34 4,11 9,20 16,28 8,8 16,14 26,17 10,4 21,6 33,6 4,0 9,0 13,-1 5,0 9,-1 14,-2 4,-1 9,-3 13,-4 5,-2 10,-4 15,-6l2 38c-5,2 -10,4 -15,5 -5,2 -10,3 -16,3 -5,1 -10,1 -16,2 -5,0 -11,0 -17,0 -18,0 -34,-2 -49,-8 -14,-5 -27,-13 -38,-24 -11,-11 -19,-24 -24,-38 -6,-15 -9,-31 -9,-49 0,-18 3,-35 9,-49 5,-15 14,-28 25,-39 11,-11 25,-19 40,-24 15,-6 32,-9 50,-9 5,0 11,0 16,1 5,0 10,1 15,2 5,0 10,1 14,3 5,1 10,2 14,4l0 0z"/>
   <polygon class="fil1" points="1405,1228 1405,1266 1313,1266 1313,1555 1267,1555 1267,1266 1176,1266 1176,1228 "/>
   <g>
    <path class="fil2" d="M68 1692l-2 14c-1,-1 -3,-2 -5,-2 -2,-1 -4,-2 -5,-2 -2,0 -4,-1 -6,-1 -2,0 -4,0 -6,0 -3,0 -6,0 -8,1 -3,0 -5,1 -7,3 -2,1 -3,2 -4,4 -1,2 -1,3 -1,6 0,1 0,3 0,4 1,2 2,3 3,5 1,1 3,3 6,5 3,2 6,4 11,6 5,3 9,6 13,8 4,3 7,6 9,8 2,3 4,5 5,8 1,3 1,6 1,9 0,4 -1,9 -3,12 -1,4 -4,8 -7,11 -4,3 -7,5 -12,6 -4,1 -9,2 -14,2 -3,0 -6,0 -8,0 -2,0 -5,0 -7,-1 -3,0 -5,-1 -7,-1 -2,-1 -4,-2 -6,-2l1 -15c2,1 5,2 7,3 2,1 4,2 6,2 2,1 4,1 6,1 2,1 4,1 6,1 4,0 7,-1 9,-1 3,-1 5,-2 7,-3 2,-2 3,-4 4,-5 1,-2 2,-4 2,-7 0,-3 -2,-7 -6,-11 -4,-4 -10,-8 -17,-13 -2,-1 -3,-1 -4,-2 -1,0 -1,-1 -2,-1 -3,-2 -6,-4 -8,-6 -2,-2 -4,-4 -6,-7 -2,-2 -3,-4 -4,-7 0,-2 -1,-5 -1,-8 0,-4 1,-8 3,-11 1,-3 4,-6 7,-9 3,-2 7,-4 11,-6 5,-1 10,-1 15,-1 2,0 4,0 6,0 2,0 4,0 6,1 2,0 4,0 6,1 2,0 4,1 6,1l0 0zm80 64l0 6 -56 0c0,5 1,9 2,12 2,3 3,6 6,8 2,3 5,4 8,6 4,1 7,1 12,1 1,0 3,0 5,0 2,0 4,-1 5,-1 2,-1 4,-1 6,-2 2,-1 4,-1 5,-2l0 12c-1,1 -3,1 -5,2 -2,0 -4,1 -6,1 -2,1 -4,1 -7,1 -2,0 -4,0 -7,0 -6,0 -11,-1 -16,-2 -5,-2 -9,-5 -12,-9 -4,-3 -6,-8 -8,-13 -2,-5 -3,-11 -3,-18 0,-6 1,-11 3,-16 2,-5 4,-9 8,-13 3,-4 7,-7 11,-8 5,-2 10,-3 15,-3 6,0 10,1 14,2 4,2 8,5 11,8 3,4 5,8 6,12 2,5 3,11 3,17l0 -1zm-14 -3c0,-4 -1,-8 -2,-11 -1,-3 -2,-5 -4,-7 -2,-2 -4,-4 -6,-5 -3,-1 -5,-2 -8,-2 -3,0 -6,1 -8,2 -3,1 -5,3 -7,5 -2,2 -3,5 -5,8 -1,3 -1,6 -2,10l42 0zm63 -34l-1 14c0,0 -1,-1 -1,-1 -1,0 -1,0 -2,0 0,0 -1,0 -1,0 -1,0 -1,0 -2,0 -3,0 -6,0 -9,2 -2,1 -4,3 -6,5 -2,2 -3,5 -4,8 -1,4 -2,8 -2,12l0 39 -14 0 0 -78 13 0 0 16c1,-3 2,-6 4,-8 1,-2 3,-4 5,-5 2,-2 4,-3 6,-4 3,0 5,-1 8,-1 0,0 0,0 0,0 1,0 1,0 1,0 0,0 1,0 1,0 0,0 0,0 1,0 0,0 1,1 1,1 1,0 1,0 2,0l0 0zm35 10c-3,0 -5,1 -8,2 -3,2 -5,3 -7,6 -2,3 -3,6 -4,9 -1,4 -1,8 -1,12 0,5 0,9 1,12 1,3 2,6 4,9 2,3 5,5 7,6 3,1 6,2 9,2 3,0 6,-1 9,-2 2,-1 5,-3 7,-6 2,-3 3,-6 4,-9 1,-3 2,-7 2,-11 0,-5 -1,-9 -2,-13 -1,-3 -2,-6 -4,-9 -2,-3 -4,-4 -7,-6 -3,-1 -6,-2 -10,-2l0 0zm24 5l0 -14 14 0 0 70c0,7 -1,13 -3,18 -1,6 -4,11 -7,14 -4,4 -8,6 -13,8 -4,2 -10,3 -17,3 -2,0 -4,0 -7,0 -2,-1 -4,-1 -7,-1 -2,-1 -4,-1 -6,-2 -2,-1 -4,-1 -6,-2l1 -13c2,1 4,2 6,3 2,0 4,1 6,2 2,0 4,1 6,1 1,0 3,0 5,0 4,0 8,0 12,-2 3,-1 6,-3 8,-5 3,-3 5,-6 6,-10 1,-3 1,-7 1,-12l0 -9c-1,2 -3,5 -5,7 -2,2 -4,3 -6,5 -2,1 -5,2 -7,3 -3,0 -5,0 -8,0 -5,0 -9,0 -13,-2 -4,-2 -8,-5 -11,-8 -3,-4 -5,-8 -7,-13 -1,-5 -2,-10 -2,-16 0,-6 1,-12 2,-17 2,-5 4,-9 7,-13 3,-4 7,-7 11,-8 4,-2 8,-3 13,-3 3,0 6,0 9,1 2,0 5,1 7,3 2,1 4,3 6,5 2,2 4,4 5,7l0 0zm43 -14l0 78 -15 0 0 -78 15 0zm0 -37l0 15 -15 0 0 -15 15 0zm30 103l0 45 -15 0 0 -111 14 0 0 15c1,-3 3,-5 5,-7 2,-3 4,-4 6,-6 3,-1 5,-2 8,-3 3,-1 6,-1 9,-1 4,0 9,1 13,2 4,2 7,5 10,9 3,3 5,8 7,12 1,5 2,11 2,17 0,6 -1,12 -2,17 -2,5 -4,10 -7,13 -3,4 -7,7 -11,9 -4,2 -8,3 -13,3 -3,0 -6,-1 -8,-1 -3,-1 -5,-2 -7,-3 -2,-1 -4,-2 -6,-4 -2,-2 -4,-4 -5,-6l0 0zm44 -28c0,-4 -1,-8 -2,-12 -1,-3 -2,-6 -4,-9 -2,-2 -4,-4 -7,-5 -2,-2 -5,-2 -9,-2 -3,0 -6,0 -9,2 -2,1 -5,3 -7,6 -2,2 -3,5 -4,9 -2,3 -2,7 -2,12 0,4 0,8 1,12 1,4 3,7 5,10 2,2 4,4 7,6 3,1 6,2 9,2 3,0 6,-1 9,-2 2,-2 5,-4 7,-6 2,-3 3,-6 4,-10 1,-4 2,-8 2,-12l0 -1zm90 -2l0 6 -56 0c0,5 1,9 2,12 1,3 3,6 6,8 2,3 5,4 8,6 3,1 7,1 11,1 2,0 4,0 6,0 2,0 3,-1 5,-1 2,-1 4,-1 6,-2 1,-1 3,-1 5,-2l0 12c-1,1 -3,1 -5,2 -2,0 -4,1 -6,1 -2,1 -4,1 -7,1 -2,0 -4,0 -7,0 -6,0 -11,-1 -16,-2 -5,-2 -9,-5 -12,-9 -4,-3 -6,-8 -8,-13 -2,-5 -3,-11 -3,-18 0,-6 1,-11 3,-16 2,-5 4,-9 8,-13 3,-4 7,-7 11,-8 5,-2 10,-3 15,-3 5,0 10,1 14,2 4,2 8,5 11,8 3,4 5,8 6,12 2,5 3,11 3,17l0 -1zm-14 -3c-1,-4 -1,-8 -2,-11 -1,-3 -2,-5 -4,-7 -2,-2 -4,-4 -6,-5 -3,-1 -6,-2 -9,-2 -3,0 -5,1 -8,2 -2,1 -4,3 -6,5 -2,2 -4,5 -5,8 -1,3 -2,6 -2,10l42 0zm82 -11l9 0c4,0 8,0 11,-1 3,-1 6,-2 8,-4 2,-2 4,-4 5,-7 1,-2 1,-5 1,-9 0,-3 0,-6 -1,-8 -1,-3 -2,-5 -4,-6 -2,-2 -5,-3 -8,-4 -3,-1 -6,-2 -10,-2l-11 0 0 41zm11 -53c7,0 13,1 17,3 5,1 9,3 13,6 3,2 5,6 7,10 2,4 2,8 2,14 0,5 0,10 -2,13 -2,4 -5,8 -8,11 -3,2 -8,5 -13,6 -4,1 -10,2 -16,2l-11 0 0 44 -16 0 0 -109 27 0zm77 70c-4,1 -8,1 -11,2 -4,0 -7,1 -9,3 -2,1 -4,3 -5,5 -1,2 -2,4 -2,7 0,2 0,4 1,5 1,2 2,3 3,4 1,2 3,3 5,3 1,1 3,1 5,1 4,0 7,0 9,-1 3,-1 5,-3 7,-5 3,-2 4,-5 5,-8 1,-3 2,-6 2,-9l0 -7 -10 0zm24 -9l0 48 -13 0 0 -13c-2,3 -4,5 -6,7 -1,2 -3,3 -6,4 -2,1 -4,2 -7,3 -3,0 -5,0 -8,0 -4,0 -8,0 -11,-1 -3,-1 -5,-3 -8,-5 -2,-2 -4,-4 -5,-7 -1,-3 -2,-6 -2,-10 0,-4 1,-8 3,-11 2,-3 4,-6 8,-8 3,-3 8,-4 13,-5 5,-2 11,-2 17,-2l11 0 0 -2c0,-3 -1,-5 -2,-8 -1,-2 -2,-4 -4,-6 -1,-2 -3,-3 -6,-4 -2,-1 -5,-1 -8,-1 -2,0 -3,0 -5,0 -2,1 -4,1 -6,1 -2,1 -3,2 -5,3 -2,0 -4,1 -6,3l0 -13c2,-1 4,-1 6,-2 2,-1 4,-1 6,-2 2,0 5,-1 7,-1 2,0 5,0 7,0 5,0 10,0 13,2 4,1 7,3 9,6 3,3 5,6 6,10 1,4 2,9 2,15l0 -1zm57 -31l-1 14c-1,0 -1,-1 -2,-1 0,0 -1,0 -1,0 -1,0 -1,0 -2,0 0,0 -1,0 -1,0 -3,0 -6,0 -9,2 -3,1 -5,3 -7,5 -1,2 -3,5 -4,8 -1,4 -1,8 -1,12l0 39 -15 0 0 -78 13 0 0 16c2,-3 3,-6 4,-8 2,-2 4,-4 6,-5 2,-2 4,-3 6,-4 2,0 5,-1 7,-1 1,0 1,0 1,0 0,0 0,0 1,0 0,0 0,0 0,0 1,0 1,0 1,0 1,0 1,1 2,1 0,0 1,0 2,0l0 0zm34 11c-3,0 -6,0 -8,2 -3,1 -5,3 -7,6 -2,2 -3,5 -4,9 -1,3 -1,7 -1,11 0,5 0,9 1,13 1,4 2,7 4,10 2,2 5,4 7,6 3,1 6,2 9,2 4,0 7,-1 9,-2 3,-2 5,-4 7,-6 2,-3 4,-6 5,-10 1,-3 1,-8 1,-12 0,-5 -1,-9 -2,-12 -1,-4 -2,-7 -4,-10 -2,-2 -5,-4 -7,-5 -3,-2 -6,-2 -10,-2l0 0zm25 5l0 -15 13 0 0 111 -15 0 0 -45c-1,2 -3,4 -5,6 -2,2 -4,3 -6,4 -2,1 -4,2 -7,3 -2,0 -5,1 -8,1 -5,0 -9,-1 -13,-3 -4,-2 -8,-5 -11,-9 -3,-3 -5,-8 -7,-13 -1,-5 -2,-11 -2,-18 0,-6 1,-11 2,-16 2,-5 4,-9 7,-12 3,-4 7,-7 11,-9 4,-1 8,-2 13,-2 3,0 6,0 8,1 3,1 6,2 8,3 2,2 4,3 6,6 2,2 4,4 6,7l0 0zm42 -15l0 43c0,4 1,8 1,11 1,3 2,5 3,7 2,2 4,4 6,5 2,1 5,1 8,1 3,0 6,-1 9,-2 2,-1 4,-3 6,-6 2,-2 3,-6 4,-9 1,-4 2,-9 2,-14l0 -36 14 0 0 78 -13 0 0 -15c-2,3 -3,6 -5,8 -2,2 -4,3 -6,5 -2,1 -5,2 -8,3 -2,0 -5,0 -8,0 -5,0 -9,0 -12,-1 -4,-2 -6,-4 -9,-7 -2,-2 -4,-6 -5,-10 -1,-4 -2,-9 -2,-14l0 -47 15 0zm134 36l0 6 -56 0c0,5 1,9 2,12 2,3 4,6 6,8 2,3 5,4 8,6 4,1 7,1 12,1 1,0 3,0 5,0 2,0 4,-1 5,-1 2,-1 4,-1 6,-2 2,-1 4,-1 6,-2l0 12c-2,1 -4,1 -6,2 -2,0 -4,1 -6,1 -2,1 -4,1 -6,1 -3,0 -5,0 -8,0 -6,0 -11,-1 -16,-2 -4,-2 -9,-5 -12,-9 -3,-3 -6,-8 -8,-13 -2,-5 -2,-11 -2,-18 0,-6 0,-11 2,-16 2,-5 4,-9 8,-13 3,-4 7,-7 12,-8 4,-2 9,-3 14,-3 6,0 10,1 14,2 4,2 8,5 11,8 3,4 5,8 7,12 1,5 2,11 2,17l0 -1zm-14 -3c0,-4 -1,-8 -2,-11 -1,-3 -2,-5 -4,-7 -2,-2 -4,-4 -6,-5 -3,-1 -5,-2 -8,-2 -3,0 -6,1 -8,2 -3,1 -5,3 -7,5 -2,2 -3,5 -4,8 -2,3 -2,6 -3,10l42 0zm131 -64l0 13 -31 0 0 96 -15 0 0 -96 -31 0 0 -13 77 0zm50 67l0 6 -56 0c0,5 1,9 2,12 2,3 4,6 6,8 2,3 5,4 9,6 3,1 7,1 11,1 2,0 3,0 5,0 2,0 4,-1 5,-1 2,-1 4,-1 6,-2 2,-1 4,-1 6,-2l0 12c-2,1 -4,1 -6,2 -2,0 -4,1 -6,1 -2,1 -4,1 -6,1 -3,0 -5,0 -7,0 -6,0 -12,-1 -17,-2 -4,-2 -8,-5 -12,-9 -3,-3 -6,-8 -8,-13 -1,-5 -2,-11 -2,-18 0,-6 1,-11 2,-16 2,-5 5,-9 8,-13 3,-4 7,-7 12,-8 4,-2 9,-3 15,-3 5,0 9,1 13,2 5,2 8,5 11,8 3,4 5,8 7,12 1,5 2,11 2,17l0 -1zm-14 -3c0,-4 -1,-8 -2,-11 -1,-3 -2,-5 -4,-7 -2,-2 -4,-4 -6,-5 -2,-1 -5,-2 -8,-2 -3,0 -6,1 -8,2 -3,1 -5,3 -7,5 -2,2 -3,5 -4,8 -1,3 -2,6 -3,10l42 0zm76 -31l-1 13c-1,-1 -3,-1 -4,-2 -1,0 -3,-1 -4,-1 -2,0 -3,-1 -5,-1 -1,0 -3,0 -4,0 -4,0 -8,0 -11,2 -4,1 -6,3 -9,6 -3,2 -4,5 -6,9 -1,3 -2,7 -2,11 0,4 1,8 2,12 1,3 3,6 6,9 2,2 5,4 8,6 4,1 7,2 11,2 2,0 3,0 5,-1 1,0 3,0 4,0 2,-1 3,-1 5,-2 1,-1 3,-1 4,-2l1 13c-1,1 -3,1 -5,2 -1,0 -3,0 -5,0 -2,1 -4,1 -5,1 -2,0 -4,0 -6,0 -6,0 -12,-1 -16,-2 -5,-2 -9,-5 -13,-8 -4,-4 -6,-8 -8,-13 -2,-5 -3,-11 -3,-17 0,-6 1,-11 3,-16 2,-5 4,-9 8,-13 4,-4 8,-6 13,-8 5,-2 11,-3 17,-3 2,0 4,0 6,0 1,0 3,1 5,1 1,0 3,0 4,1 2,0 3,1 5,1l0 0zm76 29l0 47 -15 0 0 -44c0,-4 0,-7 -1,-10 0,-3 -1,-6 -3,-8 -1,-2 -3,-3 -5,-4 -2,-1 -5,-2 -8,-2 -3,0 -6,1 -9,2 -2,1 -5,3 -7,6 -1,2 -3,5 -4,9 -1,3 -1,7 -1,11l0 40 -15 0 0 -78 13 0 0 14c2,-3 4,-5 6,-7 1,-2 3,-4 6,-5 2,-1 5,-3 7,-3 3,-1 6,-1 9,-1 5,0 8,0 12,2 3,1 6,3 8,6 3,3 4,7 6,11 1,4 1,8 1,14l0 0zm48 -22c-4,0 -7,1 -10,2 -3,1 -5,4 -7,6 -2,3 -4,6 -5,10 -1,3 -2,8 -2,12 0,5 1,9 2,12 1,4 3,7 5,10 2,2 4,4 7,6 3,1 6,2 10,2 3,0 7,-1 10,-2 2,-2 5,-4 7,-6 2,-3 4,-6 5,-10 1,-3 1,-7 1,-12 0,-4 0,-9 -1,-12 -1,-4 -3,-7 -5,-10 -2,-2 -5,-5 -7,-6 -3,-1 -7,-2 -10,-2l0 0zm0 -11c6,0 11,1 16,3 5,1 9,4 12,8 4,4 6,8 8,13 2,5 3,11 3,17 0,7 -1,12 -3,17 -2,5 -4,10 -8,14 -3,3 -7,6 -12,8 -5,1 -10,2 -16,2 -6,0 -12,-1 -16,-2 -5,-2 -9,-5 -13,-8 -3,-4 -6,-9 -8,-14 -2,-5 -2,-10 -2,-17 0,-6 0,-12 2,-17 2,-5 5,-9 8,-13 4,-4 8,-7 13,-8 4,-2 10,-3 16,-3l0 0zm63 -37l0 117 -15 0 0 -117 15 0z"/>
    <path class="fil2" d="M1400 1729c-4,0 -7,1 -10,2 -2,1 -5,4 -7,6 -2,3 -4,6 -5,10 -1,3 -2,8 -2,12 0,5 1,9 2,12 1,4 3,7 5,10 2,2 5,4 7,6 3,1 6,2 10,2 3,0 7,-1 10,-2 2,-2 5,-4 7,-6 2,-3 4,-6 5,-10 1,-3 1,-7 1,-12 0,-4 0,-9 -1,-12 -1,-4 -3,-7 -5,-10 -2,-2 -5,-5 -7,-6 -3,-1 -7,-2 -10,-2l0 0zm0 -11c6,0 11,1 16,3 5,1 9,4 12,8 4,4 7,8 8,13 2,5 3,11 3,17 0,7 -1,12 -3,17 -1,5 -4,10 -8,14 -3,3 -7,6 -12,8 -5,1 -10,2 -16,2 -6,0 -12,-1 -16,-2 -5,-2 -9,-5 -13,-8 -3,-4 -6,-9 -8,-14 -2,-5 -2,-10 -2,-17 0,-6 0,-12 2,-17 2,-5 5,-9 8,-13 4,-4 8,-7 13,-8 4,-2 10,-3 16,-3l0 0zm19 -36l-22 27 -8 0 16 -27 14 0zm61 47c-3,0 -6,1 -8,2 -3,2 -5,3 -7,6 -2,3 -3,6 -4,9 -1,4 -2,8 -2,12 0,5 1,9 2,12 1,3 2,6 4,9 2,3 4,5 7,6 2,1 5,2 8,2 4,0 7,-1 9,-2 3,-1 5,-3 7,-6 2,-3 4,-6 5,-9 1,-3 1,-7 1,-11 0,-5 0,-9 -1,-13 -1,-3 -3,-6 -5,-9 -2,-3 -4,-4 -7,-6 -2,-1 -5,-2 -9,-2l0 0zm24 5l0 -14 13 0 0 70c0,7 -1,13 -2,18 -2,6 -4,11 -8,14 -3,4 -7,6 -12,8 -5,2 -11,3 -17,3 -2,0 -5,0 -7,0 -2,-1 -5,-1 -7,-1 -2,-1 -4,-1 -6,-2 -3,-1 -5,-1 -7,-2l2 -13c2,1 4,2 6,3 2,0 4,1 5,2 2,0 4,1 6,1 2,0 4,0 5,0 5,0 9,0 12,-2 4,-1 7,-3 9,-5 2,-3 4,-6 5,-10 1,-3 2,-7 2,-12l0 -9c-2,2 -3,5 -5,7 -2,2 -4,3 -6,5 -3,1 -5,2 -8,3 -2,0 -5,0 -7,0 -5,0 -10,0 -14,-2 -4,-2 -7,-5 -10,-8 -3,-4 -5,-8 -7,-13 -2,-5 -2,-10 -2,-16 0,-6 0,-12 2,-17 1,-5 4,-9 7,-13 3,-4 6,-7 10,-8 4,-2 9,-3 14,-3 3,0 6,0 8,1 3,0 5,1 8,3 2,1 4,3 6,5 2,2 3,4 5,7l0 0zm42 -14l0 78 -14 0 0 -78 14 0zm0 -37l0 15 -14 0 0 -15 14 0zm71 39l-1 13c-1,-1 -3,-1 -4,-2 -1,0 -3,-1 -4,-1 -2,0 -3,-1 -5,-1 -1,0 -3,0 -4,0 -4,0 -8,0 -11,2 -4,1 -6,3 -9,6 -3,2 -4,5 -6,9 -1,3 -2,7 -2,11 0,4 1,8 2,12 1,3 3,6 6,9 2,2 5,4 8,6 4,1 7,2 11,2 2,0 3,0 5,-1 1,0 3,0 4,0 2,-1 3,-1 5,-2 1,-1 3,-1 4,-2l1 13c-1,1 -3,1 -5,2 -1,0 -3,0 -5,0 -2,1 -4,1 -5,1 -2,0 -4,0 -6,0 -6,0 -12,-1 -16,-2 -5,-2 -9,-5 -13,-8 -4,-4 -6,-8 -8,-13 -2,-5 -3,-11 -3,-17 0,-6 1,-11 3,-16 2,-5 4,-9 8,-13 4,-4 8,-6 13,-8 5,-2 11,-3 17,-3 2,0 4,0 6,0 1,0 3,1 5,1 1,0 3,0 4,1 2,0 3,1 5,1l0 0zm41 7c-3,0 -6,1 -9,2 -3,1 -5,4 -8,6 -2,3 -4,6 -5,10 -1,3 -1,8 -1,12 0,5 0,9 1,12 1,4 3,7 5,10 3,2 5,4 8,6 3,1 6,2 9,2 4,0 7,-1 10,-2 3,-2 5,-4 7,-6 3,-3 4,-6 5,-10 1,-3 2,-7 2,-12 0,-4 -1,-9 -2,-12 -1,-4 -2,-7 -5,-10 -2,-2 -4,-5 -7,-6 -3,-1 -6,-2 -10,-2l0 0zm0 -11c6,0 12,1 17,3 4,1 8,4 12,8 3,4 6,8 8,13 1,5 2,11 2,17 0,7 -1,12 -2,17 -2,5 -5,10 -8,14 -4,3 -8,6 -13,8 -4,1 -10,2 -16,2 -6,0 -11,-1 -16,-2 -5,-2 -9,-5 -12,-8 -4,-4 -6,-9 -8,-14 -2,-5 -3,-10 -3,-17 0,-6 1,-12 3,-17 2,-5 4,-9 8,-13 3,-4 7,-7 12,-8 5,-2 10,-3 16,-3l0 0z"/>
   </g>
   <g>
    <path class="fil0" d="M1237 745c-74,84 -184,153 -314,186 -275,70 -540,-42 -591,-248 -29,-122 22,-249 125,-349 -82,94 -121,208 -94,317 50,207 315,318 590,248 114,-29 211,-85 284,-154z"/>
    <path class="fil3" d="M1073 788c-135,120 -343,109 -463,-26 -121,-135 -109,-343 26,-463 134,-120 342,-109 463,26 120,135 108,343 -26,463zm-2 -21c-122,110 -312,99 -422,-23 -109,-123 -99,-313 24,-422 123,-110 312,-99 422,23 110,123 99,313 -24,422z"/>
    <path class="fil0" d="M468 323c74,-85 184,-153 314,-186 275,-70 540,41 591,248 29,121 -22,249 -125,348 82,-93 121,-207 94,-316 -50,-207 -315,-318 -590,-248 -114,29 -211,84 -284,154z"/>
    <path class="fil1" d="M612 900c-78,-80 -138,-195 -161,-327 -48,-280 84,-535 294,-569 123,-20 247,41 338,151 -87,-89 -198,-136 -309,-118 -210,33 -341,289 -293,568 20,116 67,218 131,295z"/>
    <path class="fil1" d="M1093 167c78,81 138,196 161,328 48,280 -84,535 -294,569 -123,20 -247,-41 -338,-151 87,89 198,136 308,118 210,-34 342,-289 294,-569 -20,-115 -67,-217 -131,-295z"/>
    <path class="fil1" d="M443 511c28,0 51,23 51,51 0,29 -23,51 -51,51 -28,0 -51,-22 -51,-51 0,-28 23,-51 51,-51z"/>
    <path class="fil0" d="M852 92c28,0 51,23 51,51 0,28 -23,51 -51,51 -29,0 -51,-23 -51,-51 0,-28 22,-51 51,-51z"/>
    <path class="fil3" d="M1166 553c20,0 36,16 36,36 0,20 -16,36 -36,36 -20,0 -36,-16 -36,-36 0,-20 16,-36 36,-36z"/>
   </g>
   <path class="fil1" d="M1530 1429l0 18 -168 0c1,13 3,24 7,34 4,10 10,19 17,26 8,7 16,12 26,15 9,4 21,6 33,6 6,0 11,-1 16,-2 6,0 11,-1 16,-3 6,-1 11,-3 17,-5 5,-2 11,-5 17,-8l0 37c-5,3 -11,5 -17,6 -5,2 -11,3 -18,4 -6,1 -12,2 -19,3 -7,0 -14,1 -21,1 -18,0 -35,-3 -49,-8 -14,-6 -26,-14 -37,-25 -10,-12 -18,-25 -23,-41 -5,-15 -8,-33 -8,-52 0,-18 3,-35 8,-50 5,-14 13,-27 23,-38 10,-11 22,-20 35,-25 13,-6 28,-9 45,-9 15,0 29,3 41,8 12,5 23,13 32,23 9,11 16,23 20,37 4,14 7,31 7,49l0 -1zm-42 -11c-1,-12 -2,-22 -5,-31 -3,-9 -7,-17 -13,-23 -5,-6 -11,-11 -18,-14 -8,-3 -16,-5 -25,-5 -9,0 -17,2 -24,5 -7,3 -13,8 -19,14 -6,7 -11,15 -14,24 -3,9 -6,19 -7,30l125 0z"/>
   <path class="fil0" d="M404 1429l0 18 -168 0c1,13 3,24 7,34 4,10 10,19 17,26 7,7 16,12 26,15 9,4 21,6 33,6 6,0 11,-1 16,-2 6,0 11,-1 16,-3 6,-1 11,-3 17,-5 5,-2 11,-5 17,-8l0 37c-5,3 -11,5 -17,6 -5,2 -11,3 -18,4 -6,1 -12,2 -19,3 -7,0 -14,1 -21,1 -18,0 -35,-3 -49,-8 -14,-6 -26,-14 -37,-25 -10,-12 -18,-25 -23,-41 -5,-15 -8,-33 -8,-52 0,-18 3,-35 8,-50 5,-14 13,-27 23,-38 10,-11 22,-20 35,-25 13,-6 28,-9 45,-9 15,0 29,3 41,8 12,5 23,13 32,23 9,11 16,23 20,37 4,14 7,31 7,49l0 -1zm-42 -11c-1,-12 -2,-22 -5,-31 -3,-9 -8,-17 -13,-23 -5,-6 -11,-11 -18,-14 -8,-3 -16,-5 -25,-5 -9,0 -17,2 -24,5 -7,3 -13,8 -19,14 -6,7 -11,15 -14,24 -3,9 -6,19 -7,30l125 0z"/>
   <path class="fil0" d="M687 1361l0 -42 40 0 0 209c0,21 -2,40 -7,57 -5,16 -12,30 -22,41 -10,11 -22,19 -37,24 -15,5 -32,8 -51,8 -7,0 -14,0 -21,-1 -7,0 -14,-1 -21,-3 -6,-1 -13,-2 -19,-4 -6,-2 -13,-4 -19,-7l4 -39c6,3 12,6 18,8 6,3 12,5 18,6 6,2 11,3 17,4 5,1 11,1 16,1 13,0 24,-2 35,-6 10,-4 19,-9 26,-17 7,-7 12,-17 16,-27 3,-11 5,-23 5,-37l0 -29c-5,8 -10,16 -15,22 -6,5 -12,11 -19,15 -7,4 -14,7 -22,8 -7,2 -15,3 -23,3 -15,0 -28,-3 -40,-8 -12,-5 -22,-13 -31,-24 -9,-11 -16,-24 -21,-38 -4,-15 -7,-31 -7,-48 0,-19 3,-36 7,-51 5,-15 12,-28 21,-39 9,-11 19,-20 31,-25 12,-6 26,-9 40,-9 9,0 18,1 26,3 8,2 15,5 22,9 7,4 13,9 19,15 5,6 10,13 14,21l0 0zm-71 -14c-9,1 -18,3 -25,7 -8,3 -14,9 -20,17 -6,8 -10,17 -13,27 -3,11 -4,23 -4,36 0,13 1,25 4,36 3,10 7,19 13,27 6,8 13,14 20,17 8,4 16,6 26,6 10,0 19,-2 27,-6 8,-3 15,-9 21,-17 6,-8 10,-17 13,-27 3,-10 5,-22 5,-34 0,-14 -2,-26 -5,-37 -2,-11 -7,-20 -13,-28 -6,-8 -13,-14 -21,-17 -8,-4 -17,-6 -28,-6l0 -1z"/>
   <path class="fil0" d="M845 1517l0 136 -43 0 0 -334 39 0 0 45c4,-8 10,-15 16,-21 6,-7 12,-12 19,-17 7,-4 15,-7 23,-10 8,-2 17,-3 26,-3 14,0 27,3 39,8 12,6 22,14 31,25 9,11 16,23 20,38 5,14 7,30 7,48 0,20 -2,37 -7,52 -4,16 -11,29 -20,41 -9,11 -20,20 -32,25 -12,6 -26,8 -41,8 -8,0 -16,-1 -23,-2 -8,-2 -15,-4 -21,-7 -7,-4 -13,-8 -18,-13 -6,-6 -11,-12 -15,-19l0 0zm131 -82c0,-13 -1,-25 -4,-36 -3,-10 -7,-19 -13,-27 -6,-8 -12,-14 -20,-17 -8,-4 -17,-6 -27,-6 -10,0 -19,2 -27,6 -8,3 -15,9 -21,17 -6,8 -11,18 -14,28 -3,11 -5,23 -5,36 0,14 1,26 4,37 3,10 8,20 14,28 6,8 13,14 21,18 8,4 17,6 26,6 11,0 20,-2 27,-6 8,-4 15,-10 21,-18 6,-8 11,-18 14,-29 3,-11 4,-23 4,-36l0 -1z"/>
   <path class="fil0" d="M1229 1429l0 18 -168 0c1,13 4,24 8,34 4,10 10,19 17,26 7,7 16,12 25,15 10,4 21,6 34,6 5,0 11,-1 16,-2 6,0 11,-1 16,-3 5,-1 11,-3 16,-5 6,-2 12,-5 17,-8l0 37c-5,3 -10,5 -16,6 -6,2 -12,3 -18,4 -6,1 -12,2 -19,3 -7,0 -14,1 -22,1 -18,0 -34,-3 -48,-8 -14,-6 -27,-14 -37,-25 -10,-12 -18,-25 -23,-41 -5,-15 -8,-33 -8,-52 0,-18 3,-35 8,-50 5,-14 13,-27 23,-38 10,-11 21,-20 35,-25 13,-6 28,-9 44,-9 16,0 30,3 42,8 12,5 23,13 31,23 9,11 16,23 21,37 4,14 6,31 6,49l0 -1zm-41 -11c-1,-12 -3,-22 -6,-31 -3,-9 -7,-17 -12,-23 -6,-6 -12,-11 -19,-14 -7,-3 -15,-5 -24,-5 -9,0 -17,2 -24,5 -7,3 -14,8 -19,14 -6,7 -11,15 -14,24 -4,9 -6,19 -7,30l125 0z"/>
  </g>
 </g>
</svg>
